<svg width="12" height="12" viewBox="0 0 12 12" fill="none" xmlns="http://www.w3.org/2000/svg">
<path opacity="0.8" d="M10.5354 2.85885V0.672421C10.5354 0.431644 10.426 0.215204 10.2428 0.0934621C10.0588 -0.0287579 9.83752 -0.0312793 9.65093 0.0869066C7.86912 1.21531 5.93081 1.87429 3.88987 2.04566C3.87424 2.04697 2.02959 2.0561 2.02959 2.0561C1.5663 2.0561 1.18338 2.45216 1.13039 2.96089H0.751758C0.337266 2.96089 0 3.34276 0 3.81216V5.68243C0 6.15183 0.337266 6.53373 0.751758 6.53373H1.13034C1.1685 6.89986 1.37747 7.20741 1.66437 7.35115L3.01167 11.5618C3.09588 11.8239 3.31793 12 3.56428 12H4.91632C5.10799 12 5.28804 11.8939 5.39798 11.7161C5.50793 11.5383 5.53444 11.3104 5.469 11.1067L4.31145 7.49089C6.19774 7.7128 7.99205 8.35614 9.65091 9.40668C9.74243 9.46464 9.8423 9.49355 9.942 9.49355C10.0455 9.49352 10.149 9.46236 10.2427 9.4001C10.4259 9.27833 10.5354 9.06192 10.5354 8.82109V6.63466C11.3604 6.51364 12 5.71346 12 4.74677C12 3.78005 11.3604 2.97984 10.5354 2.85885ZM1.12385 5.87716H0.751758C0.656906 5.87716 0.579773 5.78982 0.579773 5.68241V3.81216C0.579773 3.70483 0.656906 3.61743 0.751758 3.61743H1.12385V5.87716ZM1.8968 6.74964C1.78313 6.69194 1.70363 6.56282 1.70363 6.41289V3.08168H1.70365C1.70365 2.87819 1.84987 2.71263 2.02957 2.71263H3.60769V6.78196C3.60769 6.78196 2.01581 6.78127 2.00895 6.78079C1.9508 6.77318 1.93856 6.76978 1.8968 6.74964ZM4.92401 11.3308C4.92495 11.3335 4.92555 11.3354 4.92305 11.3394C4.92059 11.3434 4.91876 11.3434 4.9163 11.3434H3.56426C3.56081 11.3434 3.55765 11.3409 3.55659 11.3377L2.30895 7.43847H3.67795L4.92401 11.3308ZM9.95564 8.82111C9.95564 8.82586 9.95564 8.82966 9.94938 8.83383C9.94193 8.83871 9.93748 8.83592 9.93391 8.83367C8.15187 7.70515 6.2198 7.0277 4.18746 6.81763V2.67622C6.21996 2.46583 8.15203 1.78833 9.93384 0.659921C9.9375 0.657665 9.94202 0.654878 9.94938 0.659761C9.95564 0.663928 9.95564 0.667671 9.95564 0.672421V8.82111ZM10.5354 5.97008V3.52343C11.0394 3.63792 11.4202 4.14286 11.4202 4.74674C11.4202 5.35065 11.0394 5.85561 10.5354 5.97008Z" fill="#828282"/>
</svg>
