<svg width="25" height="16" viewBox="0 0 25 16" fill="none" xmlns="http://www.w3.org/2000/svg">
<rect width="24.9999" height="16" fill="black" fill-opacity="0"/>
<path d="M8.77131 9.65042H12.6772C11.9916 11.5893 10.1347 12.9793 7.96083 12.9633C5.32311 12.9438 3.14207 10.8332 3.03967 8.19676C2.9299 5.3707 5.19665 3.03657 7.99809 3.03657C9.27901 3.03657 10.4479 3.52474 11.3292 4.32467C11.5379 4.51419 11.8556 4.51539 12.0609 4.3221L13.4955 2.97158C13.7199 2.76034 13.7207 2.40363 13.497 2.19168C12.0994 0.86735 10.2247 0.0418875 8.15729 0.00150651C3.74775 -0.0846031 0.0309139 3.53162 0.000198962 7.94297C-0.0307888 12.3874 3.56188 16 7.99809 16C12.2643 16 15.7494 12.6588 15.9829 8.44996C15.9891 8.3972 15.9932 6.61383 15.9932 6.61383H8.77131C8.47529 6.61383 8.23536 6.85383 8.23536 7.14992V9.11434C8.23536 9.41043 8.47535 9.65042 8.77131 9.65042Z" fill="#F34A38"/>
<path d="M22.611 6.79343V4.87408C22.611 4.61461 22.4007 4.4043 22.1413 4.4043H20.5262C20.2668 4.4043 20.0565 4.61461 20.0565 4.87408V6.79343H18.1376C17.8782 6.79343 17.668 7.00374 17.668 7.26321V8.87867C17.668 9.13814 17.8782 9.34845 18.1376 9.34845H20.0565V11.2678C20.0565 11.5273 20.2668 11.7376 20.5262 11.7376H22.1413C22.4007 11.7376 22.611 11.5273 22.611 11.2678V9.34845H24.5298C24.7893 9.34845 24.9995 9.13814 24.9995 8.87867V7.26321C24.9995 7.00374 24.7893 6.79343 24.5298 6.79343H22.611Z" fill="#F34A38"/>
</svg>
