<svg width="11" height="11" viewBox="0 0 11 11" fill="none" xmlns="http://www.w3.org/2000/svg">
<path d="M7.64576 0H2.91412C1.30727 0 0 1.30734 0 2.91418V7.64582C0 9.25273 1.30727 10.56 2.91412 10.56H7.64576C9.25273 10.56 10.56 9.25266 10.56 7.64582V2.91418C10.5601 1.30734 9.25273 0 7.64576 0ZM9.62313 7.64582C9.62313 8.7361 8.7361 9.62307 7.64582 9.62307H2.91412C1.8239 9.62313 0.936934 8.7361 0.936934 7.64582V2.91418C0.936934 1.82396 1.8239 0.936934 2.91412 0.936934H7.64576C8.73604 0.936934 9.62307 1.82396 9.62307 2.91418V7.64582H9.62313Z" fill="#F2F2F2"/>
<path d="M2.72105 0C1.22064 0 0 1.22064 0 2.72104C0 4.22139 1.22064 5.44196 2.72105 5.44196C4.22145 5.44196 5.44209 4.22139 5.44209 2.72104C5.44209 1.22064 4.22145 0 2.72105 0ZM2.72105 4.50497C1.73733 4.50497 0.936934 3.7047 0.936934 2.72098C0.936934 1.7372 1.73726 0.936872 2.72105 0.936872C3.70483 0.936872 4.50516 1.7372 4.50516 2.72098C4.50516 3.7047 3.70476 4.50497 2.72105 4.50497Z" transform="translate(2.55859 2.55859)" fill="#F2F2F2"/>
<path d="M0.687086 0C0.50657 0 0.329239 0.073081 0.201753 0.201129C0.0736433 0.328552 0 0.505945 0 0.687085C0 0.867664 0.0737057 1.04499 0.201753 1.17304C0.329177 1.30046 0.50657 1.37417 0.687086 1.37417C0.868226 1.37417 1.04499 1.30046 1.17304 1.17304C1.30109 1.04499 1.37417 0.867601 1.37417 0.687085C1.37417 0.505945 1.30109 0.328552 1.17304 0.201129C1.04562 0.073081 0.868226 0 0.687086 0Z" transform="translate(7.42773 1.76367)" fill="#F2F2F2"/>
</svg>
