<svg width="25" height="16" viewBox="0 0 25 16" fill="none" xmlns="http://www.w3.org/2000/svg">
<path d="M23.97 2.45614e-07H1.02998C0.461133 2.45614e-07 0 0.45882 0 1.02482V14.9752C0 15.5412 0.461133 16 1.02998 16H23.97C24.5389 16 25 15.5412 25 14.9752V1.02482C25 0.45882 24.5389 2.45614e-07 23.97 2.45614e-07ZM1.02998 0.804829H23.97C24.0668 0.805299 24.152 0.868344 24.1803 0.960429L12.5 8.21999L0.819672 0.960429C0.847983 0.868344 0.933186 0.805299 1.02998 0.804829ZM0.808887 1.87793L9.21053 7.09859L0.808887 13.7304V1.87793ZM24.1911 14.9698C24.1911 15.0913 24.0921 15.1898 23.97 15.1898H1.02998C0.907908 15.1898 0.808887 15.0913 0.808887 14.9698V14.7552L9.93852 7.57612L12.2843 9.03555C12.4161 9.11824 12.5839 9.11824 12.7157 9.03555L15.0615 7.57612L24.1911 14.7552V14.9698ZM24.1911 13.7304L15.7679 7.12005L24.1911 1.92622V13.7304Z" fill="#03A9F4"/>
</svg>
