<svg width="27" height="23" viewBox="0 0 27 23" fill="none" xmlns="http://www.w3.org/2000/svg">
<path d="M0 20.5982C0 21.4104 0 21.8164 0.173511 22.0712C0.318762 22.2844 0.540815 22.4333 0.793256 22.4866C1.09481 22.5503 1.47043 22.3961 2.22167 22.0875L24.3739 12.9893C25.5221 12.5177 26.0962 12.2819 26.2636 11.9445C26.4026 11.6645 26.4026 11.3355 26.2636 11.0555C26.0962 10.7181 25.5221 10.4823 24.3739 10.0107L2.22167 0.912471C1.47043 0.603927 1.09481 0.449655 0.793256 0.513377C0.540815 0.56672 0.318762 0.715572 0.173511 0.92882C0 1.18356 0 1.58962 0 2.40175V7.52708C0 8.03428 0 8.28788 0.0953893 8.49033C0.175919 8.66124 0.303218 8.80584 0.462542 8.90738C0.651265 9.02766 0.902822 9.0598 1.40594 9.12409L7.50162 9.90298C10.9701 10.3462 12.7044 10.5678 12.9559 10.9662C13.1617 11.2923 13.1617 11.7077 12.9559 12.0338C12.7044 12.4322 10.9701 12.6538 7.50162 13.097L1.40594 13.8759C0.902822 13.9402 0.651265 13.9723 0.462542 14.0926C0.303218 14.1942 0.175919 14.3388 0.0953893 14.5097C0 14.7121 0 14.9657 0 15.4729V20.5982Z" fill="#03A9F4"/>
</svg>
