<svg width="11" height="11" viewBox="0 0 11 11" fill="none" xmlns="http://www.w3.org/2000/svg">
<path opacity="0.7" d="M0.186521 5.06348L2.61976 6.10654L3.56157 9.58532C3.62183 9.80812 3.85905 9.89048 4.0165 9.74263L5.37283 8.47268C5.515 8.33963 5.7175 8.333 5.86608 8.45687L8.31242 10.4968C8.48085 10.6374 8.71947 10.5314 8.76171 10.2976L10.5538 0.396989C10.5999 0.141641 10.3814 -0.0713785 10.1697 0.0226589L0.18367 4.44723C-0.0627657 4.55638 -0.0606185 4.95711 0.186521 5.06348ZM3.40979 5.5513L8.16525 2.18734C8.25071 2.12706 8.33864 2.25979 8.26525 2.33798L4.34062 6.52801C4.20267 6.6755 4.11368 6.87287 4.08848 7.0871L3.95479 8.22501C3.93709 8.37694 3.75126 8.39202 3.71476 8.24499L3.2006 6.16998C3.14171 5.93331 3.22752 5.68051 3.40979 5.5513Z" fill="#F2F2F2"/>
</svg>
