<svg width="24" height="24" viewBox="0 0 24 24" fill="none" xmlns="http://www.w3.org/2000/svg">
<path d="M12 24C18.6274 24 24 18.6274 24 12C24 5.37258 18.6274 0 12 0C5.37258 0 0 5.37258 0 12C0 18.6274 5.37258 24 12 24Z" fill="url(#paint0_linear)"/>
<path d="M13.5492 0.414231L11.4045 11.2183C11.4045 11.2183 11.1033 11.9691 10.2805 11.6094L5.33486 7.81925L3.53643 6.95151L0.510578 5.93091C0.510578 5.93091 0.0474831 5.76455 0.0025224 5.40486C-0.0424383 5.04518 0.528562 4.85185 0.528562 4.85185L12.5645 0.130979C12.56 0.130979 13.5492 -0.30514 13.5492 0.414231Z" transform="translate(4.28687 6.49023)" fill="white"/>
<path d="M1.41626 8.88123C1.41626 8.88123 1.27239 8.86774 1.09254 8.29674C0.912701 7.72574 2.74418e-07 4.73136 2.74418e-07 4.73136L7.27014 0.1139C7.27014 0.1139 7.68827 -0.142376 7.67478 0.1139C7.67478 0.1139 7.75122 0.158861 7.52641 0.370176C7.30161 0.581491 1.81641 5.50918 1.81641 5.50918" transform="translate(7.8269 8.70898)" fill="#D3E6F2"/>
<path d="M2.27501 1.4837L0.319221 3.26864C0.319221 3.26864 0.166354 3.38554 -1.37209e-07 3.3136L0.373174 0" transform="translate(9.24829 14.2773)" fill="#B6D0E5"/>
<defs>
<linearGradient id="paint0_linear" x2="1" gradientUnits="userSpaceOnUse" gradientTransform="translate(23.9545) scale(23.9108) rotate(90)">
<stop stop-color="#42BDE9"/>
<stop offset="1" stop-color="#23A8DD"/>
</linearGradient>
</defs>
</svg>
