<svg width="11" height="11" viewBox="0 0 11 11" fill="none" xmlns="http://www.w3.org/2000/svg">
<path opacity="0.7" d="M10.56 1.24941C10.1713 1.46143 9.7543 1.60522 9.31613 1.66942C9.76353 1.33959 10.106 0.816431 10.2683 0.194963C9.84865 0.500407 9.38541 0.722199 8.89181 0.842431C8.49655 0.32333 7.93433 4.01925e-08 7.31074 4.01925e-08C6.11439 4.01925e-08 5.14437 1.19418 5.14437 2.6662C5.14437 2.87497 5.1635 3.07887 5.20046 3.27386C3.40033 3.16255 1.80409 2.10079 0.73575 0.487407C0.549 0.880604 0.442762 1.33876 0.442762 1.82782C0.442762 2.75312 0.825493 3.56955 1.40619 4.04721C1.05117 4.03259 0.71727 3.91236 0.424954 3.71251V3.74582C0.424954 5.03749 1.17194 6.1155 2.16241 6.36085C1.98093 6.42096 1.78958 6.45427 1.59161 6.45427C1.45173 6.45427 1.31645 6.43721 1.18381 6.40471C1.45963 7.46486 2.25941 8.23578 3.207 8.25692C2.46595 8.97181 1.53156 9.39668 0.516682 9.39668C0.34182 9.39668 0.169581 9.38368 0 9.36012C0.958805 10.1181 2.0971 10.56 3.3205 10.56C7.3055 10.56 9.48376 6.49652 9.48376 2.97247L9.47649 2.62722C9.9021 2.2535 10.2703 1.78396 10.56 1.24941Z" fill="#F2F2F2"/>
</svg>
