<svg width="24" height="24" viewBox="0 0 24 24" fill="none" xmlns="http://www.w3.org/2000/svg">
<path d="M8.41765 7.00899C8.44725 3.6252 5.48775 0.523183 1.82044 0.0942209C1.74751 0.0857832 1.66803 0.0729859 1.58394 0.0593918C1.40237 0.0300943 1.21463 3.4333e-08 1.02521 3.4333e-08C0.273604 3.4333e-08 0.0726814 0.514136 0.0197789 0.820799C-0.0316795 1.11893 0.0174196 1.36929 0.165344 1.56528C0.41426 1.89487 0.85221 1.95337 1.20399 2.00029C1.3071 2.01417 1.40439 2.02706 1.48584 2.04487C4.78076 2.76184 5.89022 3.88902 6.43243 7.07035C6.44567 7.14807 6.45164 7.24389 6.45799 7.34547C6.48163 7.72577 6.53092 8.51695 7.40441 8.51695H7.40451C7.47724 8.51695 7.55537 8.51085 7.63672 8.49876C8.45014 8.37838 8.42463 7.65518 8.4124 7.30769C8.40893 7.20981 8.40566 7.11723 8.41418 7.05568C8.4164 7.04017 8.41755 7.02456 8.41765 7.00899Z" transform="translate(12.342 3.06445)" fill="#7F40BD"/>
<path d="M1.19687 1.9147C1.29445 1.92154 1.38687 1.9281 1.46379 1.93959C6.87438 2.74989 9.36263 5.24622 10.0522 10.5563C10.0639 10.6466 10.0657 10.7566 10.0676 10.8732C10.0745 11.2881 10.0887 12.1512 11.0405 12.169L11.07 12.1693C11.3685 12.1693 11.606 12.0816 11.7758 11.9086C12.0721 11.6068 12.0515 11.1585 12.0348 10.7981C12.0307 10.7097 12.0268 10.6265 12.0278 10.5536C12.0966 5.12275 7.26915 0.198098 1.69726 0.0150003C1.67415 0.0142503 1.65211 0.0154691 1.62982 0.018516C1.61889 0.0200629 1.59858 0.0220317 1.56382 0.0220317C1.50827 0.0220317 1.43992 0.0173441 1.36742 0.0125628C1.27977 0.00670327 1.18041 0 1.07971 0C0.192354 0 0.0236825 0.614169 0.00211716 0.980271C-0.0476564 1.82643 0.79291 1.88596 1.19687 1.9147Z" transform="translate(11.957)" fill="#7F40BD"/>
<path d="M21.7484 16.2248C21.6333 16.1392 21.5144 16.0507 21.403 15.9633C20.8123 15.5004 20.1838 15.0736 19.576 14.6609C19.4499 14.5754 19.3237 14.4898 19.198 14.4039C18.4195 13.8713 17.7195 13.6125 17.0582 13.6125C16.1675 13.6125 15.3909 14.0918 14.75 15.0368C14.466 15.4558 14.1215 15.6595 13.6969 15.6595C13.4459 15.6595 13.1606 15.5897 12.8492 15.452C10.3361 14.3423 8.54157 12.6408 7.51544 10.3948C7.01939 9.30921 7.18021 8.59965 8.05322 8.02214C8.54898 7.69447 9.47177 7.08448 9.4064 5.91637C9.33237 4.58988 6.32679 0.598528 5.06041 0.145237C4.52426 -0.0467668 3.96091 -0.0485481 3.38303 0.140784C1.92717 0.617372 0.882459 1.45434 0.361521 2.56104C-0.141895 3.63042 -0.119174 4.88604 0.427276 6.19219C2.00694 9.96862 4.22783 13.2612 7.02853 15.9782C9.76993 18.638 13.1393 20.8166 17.043 22.4535C17.3949 22.6009 17.764 22.6814 18.0334 22.74C18.1253 22.7601 18.2046 22.7773 18.2624 22.7927C18.2942 22.8012 18.3269 22.8057 18.3598 22.806L18.3906 22.8061C18.3907 22.8061 18.3906 22.8061 18.3908 22.8061C20.2268 22.8061 22.4314 21.1723 23.1085 19.3096C23.7017 17.6787 22.6186 16.8725 21.7484 16.2248Z" transform="translate(0 1.19141)" fill="#7F40BD"/>
<path d="M1.27004 0.000651132C0.955707 0.00838567 0.301478 0.0241833 0.0719614 0.673041C-0.035432 0.976235 -0.0225788 1.23949 0.110231 1.4555C0.305089 1.77242 0.678486 1.86955 1.01809 1.92285C2.24972 2.11532 2.88224 2.77852 3.00875 4.00986C3.06752 4.584 3.46455 4.98493 3.97432 4.98493H3.97442C4.01206 4.98493 4.05057 4.98277 4.08894 4.97823C4.70201 4.90721 4.99926 4.46854 4.9724 3.67461C4.98222 2.84598 4.5369 1.90527 3.77951 1.15596C3.01943 0.404348 2.10334 -0.018943 1.27004 0.000651132Z" transform="translate(12.6965 6.22656)" fill="#7F40BD"/>
</svg>
