п»ї<svg xmlns="http://www.w3.org/2000/svg" width="30" height="30" viewBox="0 0 30 30">
  <metadata><?xpacket begin="п»ї" id="W5M0MpCehiHzreSzNTczkc9d"?>
<x:xmpmeta xmlns:x="adobe:ns:meta/" x:xmptk="Adobe XMP Core 5.6-c138 79.159824, 2016/09/14-01:09:01"><rdf:RDF xmlns:rdf="http://www.w3.org/1999/02/22-rdf-syntax-ns#">
      <rdf:Description rdf:about=""/></rdf:RDF>
</x:xmpmeta>
<?xpacket end="w"?></metadata>
<defs><style>
.cls-2 {
fill: #111;
 fill-rule: evenodd;}</style></defs><path class="cls-2" d="M23.692,10.252a2.385,2.385,0,0,0-1.946-1.974A54.142,54.142,0,0,0,15,8a54.149,54.149,0,0,0-6.742.278,2.384,2.384,0,0,0-1.945,1.974A23.937,23.937,0,0,0,6,15a23.945,23.945,0,0,0,.314,4.748,2.385,2.385,0,0,0,1.945,1.974A54.216,54.216,0,0,0,15,22a54.208,54.208,0,0,0,6.741-.279,2.385,2.385,0,0,0,1.946-1.974A23.929,23.929,0,0,0,24,15,23.942,23.942,0,0,0,23.692,10.252ZM12.678,18.117V11.474L18.4,14.806Z"/>
</svg>
